<svg xmlns:xlink="http://www.w3.org/1999/xlink" xmlns="http://www.w3.org/2000/svg" version="1.1" viewBox="0 0 1024 1024" height="1024px" width="1024px">
    <title>内容加载失败</title>
    <defs>
        <linearGradient id="linearGradient-1" y2="-0.0579832828%" x2="50%" y1="100.122278%" x1="50%">
            <stop offset="0%" stop-opacity="0" stop-color="#FDF5F7"></stop>
            <stop offset="100%" stop-color="#FAD4D2"></stop>
        </linearGradient>
        <linearGradient id="linearGradient-2" y2="0.00649473815%" x2="50.0843871%" y1="100%" x1="50.0843871%">
            <stop offset="0%" stop-opacity="0.1" stop-color="#FFFFFF"></stop>
            <stop offset="100%" stop-color="#FDECEB"></stop>
        </linearGradient>
        <linearGradient id="linearGradient-3" y2="-0.0811277354%" x2="50.0045895%" y1="99.9311993%" x1="50.0045895%">
            <stop offset="0%" stop-opacity="0.1" stop-color="#FFFFFF"></stop>
            <stop offset="100%" stop-color="#FAD6D4"></stop>
        </linearGradient>
        <linearGradient id="linearGradient-4" y2="0%" x2="50%" y1="100%" x1="50%">
            <stop offset="0%" stop-opacity="0.1" stop-color="#FFFFFF"></stop>
            <stop offset="13%" stop-color="#FEFCFB"></stop>
            <stop offset="41%" stop-color="#FEFCFB"></stop>
            <stop offset="81%" stop-color="#F9D8D5"></stop>
            <stop offset="100%" stop-color="#F9D8D5"></stop>
        </linearGradient>
        <linearGradient id="linearGradient-5" y2="100%" x2="50%" y1="0%" x1="50%">
            <stop offset="0%" stop-color="#F8D0CE"></stop>
            <stop offset="100%" stop-color="#E59490"></stop>
        </linearGradient>
        <linearGradient id="linearGradient-6" y2="100%" x2="50%" y1="0%" x1="50%">
            <stop offset="0%" stop-color="#EDAEAB"></stop>
            <stop offset="100%" stop-color="#EC463D"></stop>
        </linearGradient>
        <linearGradient id="linearGradient-7" y2="100%" x2="50%" y1="0%" x1="50%">
            <stop offset="0%" stop-color="#F7CECB"></stop>
            <stop offset="100%" stop-color="#F76662"></stop>
        </linearGradient>
        <linearGradient id="linearGradient-8" y2="100%" x2="18%" y1="0%" x1="50%">
            <stop offset="0%" stop-color="#EB5654"></stop>
            <stop offset="100%" stop-color="#F78785"></stop>
        </linearGradient>
        <linearGradient id="linearGradient-9" y2="81.7846593%" x2="81.7087121%" y1="22.4233371%" x1="33.1838322%">
            <stop offset="0%" stop-color="#F9B0AE"></stop>
            <stop offset="100%" stop-color="#F65651"></stop>
        </linearGradient>
        <linearGradient id="linearGradient-10" y2="43.6478969%" x2="50%" y1="58.6583759%" x1="12.7059618%">
            <stop offset="0%" stop-opacity="0" stop-color="#FFF3F2"></stop>
            <stop offset="100%" stop-color="#FFE2E0"></stop>
        </linearGradient>
    </defs>
    <g fill-rule="evenodd" fill="none" stroke-width="1" stroke="none" id="内容加载失败">
        <rect height="1024" width="1024" y="0" x="0" fill="#FFFFFF"></rect>
        <g fill-rule="nonzero" transform="translate(0.000000, 120.000000)" id="编组-2">
            <polygon points="101.338645 486 107 547 72 542.931464" fill="#FAD4D2" id="路径"></polygon>
            <polygon points="101 486 138 534.205154 106.668679 547" fill="#FDC6C3" id="路径"></polygon>
            <path fill="url(#linearGradient-1)" id="路径" d="M167.226695,222.026586 C163.492711,202.014575 146.009937,187.640823 125.848517,188.006834 C115.061593,187.956383 104.650299,192.004239 96.6816737,199.346752 C92.2164177,197.314169 87.3751145,196.260961 82.4772245,196.256625 C66.9584474,196.009657 53.3722107,206.731143 49.8575212,221.998237 C37.9307461,224.661244 29.3304481,235.181909 29,247.513052 C29.4585952,262.518847 41.8172108,274.341524 56.6790254,273.99176 L160.320975,273.99176 C175.188744,274.357154 187.556538,262.525697 188,247.513052 C187.676143,235.214173 179.115739,224.711538 167.226695,222.026586 L167.226695,222.026586 Z"></path>
            <path fill="url(#linearGradient-2)" id="路径" d="M768.714498,83.0955745 C763.32672,74.6548285 754.21547,69.4118365 744.306491,69.0501903 C738.536478,60.1203494 728.651433,54.817417 718.124893,55.0048061 C709.6853,54.9196281 701.567448,58.2843886 695.603086,64.3398479 C692.872347,63.4561753 690.023822,63.0036407 687.157409,62.9981143 C673.897696,62.9981143 662.946468,72.3046086 661.820379,84.0661904 C651.712515,86.5091866 644.434781,95.4630212 644,105.990693 C644,118.665795 655.457969,129 669.337032,129 L766.659384,129 C780.735511,129 791.996416,118.665795 791.996416,105.990693 C792.221633,93.9436356 781.805297,84.037643 768.714498,83.0955745 Z"></path>
            <path fill="url(#linearGradient-3)" id="路径" d="M949.623905,51.7428517 C940.122562,32.1673233 920.286816,19.7104525 898.509647,19.643039 C886.380486,19.6691136 874.582387,23.5978536 864.863399,30.8471621 C853.298536,8.31301396 828.182324,-3.83299065 803.315887,1.08326516 C778.449449,5.99952119 759.857514,26.7869102 757.756177,52.0229547 C731.006664,60.4551356 714.408255,87.1140641 718.662885,114.81122 C722.917516,142.508377 746.754,162.9685 774.803609,163 L933.053129,163 C961.264971,163.053292 985.245783,142.424685 989.381219,114.545632 C993.516652,86.6665792 976.554782,59.9769683 949.53979,51.8548928 L949.623905,51.7428517 Z"></path>
            <ellipse ry="162" rx="512" cy="622" cx="512" opacity="0.407744635" fill="url(#linearGradient-4)" id="椭圆形"></ellipse>
            <polygon points="906 486 901.126468 550 865 539.522626" fill="#FAD4D2" id="路径"></polygon>
            <polygon points="904.847021 486 935 542.390418 900 550" fill="#FDC6C3" id="路径"></polygon>
            <polygon points="201.370482 474 206 522 177 518.807536" fill="#F7D9D7" id="路径"></polygon>
            <polygon points="200 474 230 511.885817 204.547188 522" fill="#FFCCC8" id="路径"></polygon>
            <polygon points="148.480744 444 158 545 94 538.708564" fill="#FAD4D2" id="路径"></polygon>
            <polygon points="147 444 214 523.373191 156.526873 545" fill="#FDC6C3" id="路径"></polygon>
        </g>
        <g transform="translate(393.000000, 323.441519)" id="漏斗">
            <g transform="translate(0.000000, 0.558481)" id="编组-3">
                <path opacity="0.768248059" fill="#FEEDEC" id="矩形" d="M18.1126376,5.60876824 L201.313246,5.60876824 C209.045232,5.60876923 215.313245,11.8767823 215.313245,19.6087682 C215.313245,20.7434869 215.175291,21.8739972 214.90242,22.9754179 C191.058404,119.219607 157.771645,173.411847 115.042142,185.552138 C67.0763585,170.821636 30.2664266,116.742859 4.61234594,23.3158084 C2.56500263,15.8598025 6.94959278,8.15581733 14.4055994,6.10847671 C15.6133634,5.7768375 16.8601687,5.60876824 18.1126376,5.60876824 Z"></path>
                <path fill="#EC463D" id="路径-22" d="M13.8050913,36.2398608 C17.4429388,30.4363308 22.6583372,25.5406022 29.4512864,21.5526747 C60.9104291,18.3182396 162.771553,19.1051743 192.907283,21.5526747 C202.401105,23.5076761 201.738924,29.1047253 210.292491,36.2398608 C210.046075,21.5864749 215.988897,10.1126381 192.907283,1.98517731 C169.992025,0.744479858 61.9402364,-1.78141089 27.4648271,1.98517731 C16.8437476,4.27405144 13.8050913,14.230393 13.8050913,21.5526747 C13.8050913,26.4341959 13.8050913,31.3299246 13.8050913,36.2398608 Z"></path>
            </g>
            <g transform="translate(109.500000, 242.558481) scale(1, -1) translate(-109.500000, -242.558481) translate(0.000000, 149.558481)" id="编组-3">
                <path opacity="0.768248059" fill="#FEEDEC" id="矩形" d="M18.1126376,5.60876824 L201.313246,5.60876824 C209.045232,5.60876923 215.313245,11.8767823 215.313245,19.6087682 C215.313245,20.7434869 215.175291,21.8739972 214.90242,22.9754179 C191.058404,119.219607 157.771645,173.411847 115.042142,185.552138 C67.0763585,170.821636 30.2664266,116.742859 4.61234594,23.3158084 C2.56500263,15.8598025 6.94959278,8.15581733 14.4055994,6.10847671 C15.6133634,5.7768375 16.8601687,5.60876824 18.1126376,5.60876824 Z"></path>
                <path fill="#EC463D" id="路径-22" d="M22.9298073,36.2398608 C26.1960272,30.4363308 30.8786417,25.5406022 36.977651,21.5526747 C65.2230561,18.3182396 156.678463,19.1051743 183.73565,21.5526747 C192.259622,23.5076761 191.665087,29.1047253 199.344856,36.2398608 C199.123613,21.5864749 204.459341,10.1126381 183.73565,1.98517731 C163.161321,0.744479858 66.1476624,-1.78141089 35.1941202,1.98517731 C25.6580469,4.27405144 22.9298073,14.230393 22.9298073,21.5526747 C22.9298073,26.4341959 22.9298073,31.3299246 22.9298073,36.2398608 Z"></path>
            </g>
            <path fill="url(#linearGradient-5)" id="椭圆形-3" d="M112.084418,139.558481 C133.035115,139.558481 156,147.629138 156,157.584797 C149.413477,167.519815 137.716489,177.397445 117.504175,185.15191 L117.503646,276.558481 L110.278009,276.558481 L110.277644,185.158821 C93.2038691,179.126116 79.7779876,170.301037 70,158.683583 C84.0891478,145.933515 98.1172872,139.558481 112.084418,139.558481 Z"></path>
            <path fill="url(#linearGradient-6)" id="路径-23" d="M107.371983,219.558481 C62.267932,244.799595 36.4320817,262.975296 29.8644325,274.085587 C20.0129586,290.751022 37.5022044,311.436045 53.0602061,311.436045 C68.6182079,311.436045 126.879043,311.711527 171.91899,311.436045 C200.389171,302.622124 197.291258,279.349927 190.023457,272.5031 C163.866459,248.298324 140.538635,230.650117 120.039985,219.558481 L107.371983,219.558481 Z"></path>
            <ellipse ry="10.2545429" rx="7.41139716" cy="286.520847" cx="50.7578125" transform="translate(50.757813, 286.520847) rotate(-30.000000) translate(-50.757813, -286.520847)" fill="url(#linearGradient-7)" id="椭圆形"></ellipse>
        </g>
        <g transform="translate(567.368687, 534.492183)" id="感叹号">
            <polygon points="52.6992571 94.5078165 69.6313131 94.5078165 61.1652851 124.507817 45.6313131 124.507817" fill="#CF3833" id="路径-21"></polygon>
            <polygon points="48.6992571 94.5078165 65.6313131 94.5078165 57.1652851 124.507817 41.6313131 124.507817" fill="url(#linearGradient-8)" id="路径-21"></polygon>
            <path fill="#D1332B" id="路径-20" d="M81.7884611,5.19463651 L9.70438036,78.1992839 C8.15222571,79.7712607 8.16829475,82.3038696 9.74027155,83.8560243 C10.2741098,84.383131 10.9454239,84.7494847 11.6775487,84.9132471 L114.799772,107.97973 C116.955636,108.461956 119.094232,107.105204 119.576458,104.949339 C119.732378,104.252275 119.698797,103.526175 119.479204,102.846478 L88.4410616,6.77534719 C87.7619094,4.67319416 85.507216,3.51962411 83.4050629,4.19877636 C82.7940781,4.39617003 82.2395904,4.73774592 81.7884611,5.19463651 Z"></path>
            <path fill="url(#linearGradient-9)" id="路径-20" d="M77.7884611,5.19463651 L5.70438036,78.1992839 C4.15222571,79.7712607 4.16829475,82.3038696 5.74027155,83.8560243 C6.27410983,84.383131 6.9454239,84.7494847 7.67754868,84.9132471 L110.799772,107.97973 C112.955636,108.461956 115.094232,107.105204 115.576458,104.949339 C115.732378,104.252275 115.698797,103.526175 115.479204,102.846478 L84.4410616,6.77534719 C83.7619094,4.67319416 81.507216,3.51962411 79.4050629,4.19877636 C78.7940781,4.39617003 78.2395904,4.73774592 77.7884611,5.19463651 Z"></path>
            <path transform="translate(71.190572, 65.553676) rotate(20.000000) translate(-71.190572, -65.553676)" fill-rule="nonzero" fill="#FFFFFF" id="！" d="M72.8375723,74.4636761 L73.7015723,46.2756761 L68.6795723,46.2756761 L69.4895723,74.4636761 L72.8375723,74.4636761 Z M71.1635723,84.8316761 C72.0815723,84.8316761 72.8915723,84.5076761 73.5395723,83.9136761 C74.1335723,83.3196761 74.4575723,82.5636761 74.4575723,81.5916761 C74.4575723,80.6736761 74.1335723,79.9176761 73.5395723,79.3236761 C72.8915723,78.6756761 72.0815723,78.4056761 71.1635723,78.4056761 C70.2455723,78.4056761 69.4895723,78.6756761 68.8415723,79.3236761 C68.1935723,79.9176761 67.9235723,80.6736761 67.9235723,81.5916761 C67.9235723,82.5096761 68.1935723,83.2656761 68.8415723,83.9136761 C69.4895723,84.5076761 70.2455723,84.8316761 71.1635723,84.8316761 Z"></path>
        </g>
        <polygon points="625 659.492183 482 659.441519 393.373668 702.483145 482 742" fill="url(#linearGradient-10)" id="路径-24"></polygon>
    </g>
</svg>