<svg xmlns:xlink="http://www.w3.org/1999/xlink" xmlns="http://www.w3.org/2000/svg" version="1.1" viewBox="0 0 1024 1024" height="1024px" width="1024px">
    <title>暂无订单</title>
    <defs>
        <linearGradient id="linearGradient-1" y2="-0.0579832828%" x2="50%" y1="100.122278%" x1="50%">
            <stop offset="0%" stop-opacity="0" stop-color="#FDF5F7"></stop>
            <stop offset="100%" stop-color="#FAD4D2"></stop>
        </linearGradient>
        <linearGradient id="linearGradient-2" y2="0.00649473815%" x2="50.0843871%" y1="100%" x1="50.0843871%">
            <stop offset="0%" stop-opacity="0.1" stop-color="#FFFFFF"></stop>
            <stop offset="100%" stop-color="#FDECEB"></stop>
        </linearGradient>
        <linearGradient id="linearGradient-3" y2="-0.0811277354%" x2="50.0045895%" y1="99.9311993%" x1="50.0045895%">
            <stop offset="0%" stop-opacity="0.1" stop-color="#FFFFFF"></stop>
            <stop offset="100%" stop-color="#FAD6D4"></stop>
        </linearGradient>
        <linearGradient id="linearGradient-4" y2="0%" x2="50%" y1="100%" x1="50%">
            <stop offset="0%" stop-opacity="0.1" stop-color="#FFFFFF"></stop>
            <stop offset="13%" stop-color="#FEFCFB"></stop>
            <stop offset="41%" stop-color="#FEFCFB"></stop>
            <stop offset="81%" stop-color="#F9D8D5"></stop>
            <stop offset="100%" stop-color="#F9D8D5"></stop>
        </linearGradient>
        <linearGradient id="linearGradient-5" y2="43.5039529%" x2="50%" y1="55.5700759%" x1="33.7644974%">
            <stop offset="0%" stop-opacity="0" stop-color="#FFF3F2"></stop>
            <stop offset="100%" stop-color="#FFE2E0"></stop>
        </linearGradient>
        <linearGradient id="linearGradient-6" y2="85.7182449%" x2="57.0110999%" y1="6.96642725%" x1="50%">
            <stop offset="0%" stop-color="#F9746B"></stop>
            <stop offset="100%" stop-color="#FB8982"></stop>
        </linearGradient>
        <linearGradient id="linearGradient-7" y2="73.5171371%" x2="50%" y1="0%" x1="50%">
            <stop offset="0%" stop-color="#F43327"></stop>
            <stop offset="100%" stop-color="#F67068"></stop>
        </linearGradient>
        <linearGradient id="linearGradient-8" y2="59.9542847%" x2="0%" y1="71.0141173%" x1="85.5174824%">
            <stop offset="0%" stop-color="#F1918E"></stop>
            <stop offset="100%" stop-color="#F4372C"></stop>
        </linearGradient>
        <linearGradient id="linearGradient-9" y2="58.6031707%" x2="0%" y1="64.4470689%" x1="79.2409326%">
            <stop offset="0%" stop-color="#F1918E"></stop>
            <stop offset="100%" stop-color="#F4372C"></stop>
        </linearGradient>
        <linearGradient id="linearGradient-10" y2="52.0007865%" x2="100%" y1="47.5992035%" x1="1.31855467%">
            <stop offset="0%" stop-color="#F2BCBD"></stop>
            <stop offset="100%" stop-color="#FAE0E3"></stop>
        </linearGradient>
        <linearGradient id="linearGradient-11" y2="51.4384248%" x2="100%" y1="50%" x1="3.51037712%">
            <stop offset="0%" stop-color="#F2BCBD"></stop>
            <stop offset="100%" stop-color="#FAE0E3"></stop>
        </linearGradient>
        <linearGradient id="linearGradient-12" y2="59.960343%" x2="0%" y1="71.0269068%" x1="85.5174824%">
            <stop offset="0%" stop-color="#F1918E"></stop>
            <stop offset="100%" stop-color="#F4372C"></stop>
        </linearGradient>
        <linearGradient id="linearGradient-13" y2="58.6080385%" x2="0%" y1="64.4552432%" x1="79.2409326%">
            <stop offset="0%" stop-color="#F1918E"></stop>
            <stop offset="100%" stop-color="#F4372C"></stop>
        </linearGradient>
        <linearGradient id="linearGradient-14" y2="56.5870775%" x2="46.8982545%" y1="47.6684398%" x1="56.5378822%">
            <stop offset="0%" stop-color="#F9A4A2"></stop>
            <stop offset="100%" stop-color="#F16463"></stop>
        </linearGradient>
        <linearGradient id="linearGradient-15" y2="50%" x2="0%" y1="50%" x1="88.4176888%">
            <stop offset="0%" stop-color="#F0817F"></stop>
            <stop offset="100%" stop-color="#D83F3A"></stop>
        </linearGradient>
    </defs>
    <g fill-rule="evenodd" fill="none" stroke-width="1" stroke="none" id="暂无订单">
        <rect height="1024" width="1024" y="0" x="0" fill="#FFFFFF"></rect>
        <g fill-rule="nonzero" transform="translate(0.000000, 120.000000)" id="底层装饰">
            <polygon points="101.338645 486 107 547 72 542.931464" fill="#FAD4D2" id="路径"></polygon>
            <polygon points="101 486 138 534.205154 106.668679 547" fill="#FDC6C3" id="路径"></polygon>
            <path fill="url(#linearGradient-1)" id="路径" d="M167.226695,222.026586 C163.492711,202.014575 146.009937,187.640823 125.848517,188.006834 C115.061593,187.956383 104.650299,192.004239 96.6816737,199.346752 C92.2164177,197.314169 87.3751145,196.260961 82.4772245,196.256625 C66.9584474,196.009657 53.3722107,206.731143 49.8575212,221.998237 C37.9307461,224.661244 29.3304481,235.181909 29,247.513052 C29.4585952,262.518847 41.8172108,274.341524 56.6790254,273.99176 L160.320975,273.99176 C175.188744,274.357154 187.556538,262.525697 188,247.513052 C187.676143,235.214173 179.115739,224.711538 167.226695,222.026586 L167.226695,222.026586 Z"></path>
            <path fill="url(#linearGradient-2)" id="路径" d="M768.714498,83.0955745 C763.32672,74.6548285 754.21547,69.4118365 744.306491,69.0501903 C738.536478,60.1203494 728.651433,54.817417 718.124893,55.0048061 C709.6853,54.9196281 701.567448,58.2843886 695.603086,64.3398479 C692.872347,63.4561753 690.023822,63.0036407 687.157409,62.9981143 C673.897696,62.9981143 662.946468,72.3046086 661.820379,84.0661904 C651.712515,86.5091866 644.434781,95.4630212 644,105.990693 C644,118.665795 655.457969,129 669.337032,129 L766.659384,129 C780.735511,129 791.996416,118.665795 791.996416,105.990693 C792.221633,93.9436356 781.805297,84.037643 768.714498,83.0955745 Z"></path>
            <path fill="url(#linearGradient-3)" id="路径" d="M949.623905,51.7428517 C940.122562,32.1673233 920.286816,19.7104525 898.509647,19.643039 C886.380486,19.6691136 874.582387,23.5978536 864.863399,30.8471621 C853.298536,8.31301396 828.182324,-3.83299065 803.315887,1.08326516 C778.449449,5.99952119 759.857514,26.7869102 757.756177,52.0229547 C731.006664,60.4551356 714.408255,87.1140641 718.662885,114.81122 C722.917516,142.508377 746.754,162.9685 774.803609,163 L933.053129,163 C961.264971,163.053292 985.245783,142.424685 989.381219,114.545632 C993.516652,86.6665792 976.554782,59.9769683 949.53979,51.8548928 L949.623905,51.7428517 Z"></path>
            <ellipse ry="162" rx="512" cy="622" cx="512" opacity="0.407744635" fill="url(#linearGradient-4)" id="椭圆形"></ellipse>
            <polygon points="906 486 901.126468 550 865 539.522626" fill="#FAD4D2" id="路径"></polygon>
            <polygon points="904.847021 486 935 542.390418 900 550" fill="#FDC6C3" id="路径"></polygon>
            <polygon points="201.370482 474 206 522 177 518.807536" fill="#F7D9D7" id="路径"></polygon>
            <polygon points="200 474 230 511.885817 204.547188 522" fill="#FFCCC8" id="路径"></polygon>
            <polygon points="148.480744 444 158 545 94 538.708564" fill="#FAD4D2" id="路径"></polygon>
            <polygon points="147 444 214 523.373191 156.526873 545" fill="#FDC6C3" id="路径"></polygon>
        </g>
        <polygon points="648.709625 668.5 440.875917 646 161.520617 764.89605 420.405516 821.605074" fill="url(#linearGradient-5)" id="路径-24"></polygon>
        <g transform="translate(440.875917, 349.867253)" id="笔录">
            <path fill="url(#linearGradient-6)" id="矩形" d="M16.6445321,25.7259556 L203.644532,50.2655653 C205.635423,50.5268256 207.124083,52.2236024 207.124083,54.2315623 L207.124083,317.459333 C207.124083,319.668472 205.333222,321.459333 203.124083,321.459333 C202.917351,321.459333 202.71093,321.443307 202.506676,321.411397 L15.5066759,292.197522 C13.5595287,291.893331 12.1240828,290.216223 12.1240828,288.245459 L12.1240828,29.6919526 C12.1240828,27.4828136 13.9149438,25.6919526 16.1240828,25.6919526 C16.2981209,25.6919526 16.4719735,25.7033111 16.6445321,25.7259556 Z"></path>
            <polygon points="194.59848 325.352373 204.114846 321.331183 195.124083 319.264574" fill="#F1918E" id="路径-56"></polygon>
            <polygon points="3.74196497 31.7701785 14.3101388 26.139593 12.1240828 32.8074329" fill="#F1918E" id="路径-57"></polygon>
            <path fill="url(#linearGradient-7)" id="矩形" d="M4.64453212,31.7259556 L191.644532,56.2655653 C193.635423,56.5268256 195.124083,58.2236024 195.124083,60.2315623 L195.124083,323.459333 C195.124083,325.668472 193.333222,327.459333 191.124083,327.459333 C190.917351,327.459333 190.71093,327.443307 190.506676,327.411397 L3.50667588,298.197522 C1.55952871,297.893331 0.12408282,296.216223 0.12408282,294.245459 L0.12408282,35.6919526 C0.12408282,33.4828136 1.91494382,31.6919526 4.12408282,31.6919526 C4.29812091,31.6919526 4.47197348,31.7033111 4.64453212,31.7259556 Z"></path>
            <polygon points="11.1240828 49.1327467 171.717616 67.267615 178.124083 296.132747 15.8205503 281.293737" fill="#FFFFFF" id="路径-45"></polygon>
            <g stroke-linecap="round" transform="translate(3.124083, 0.132747)" id="编组-5">
                <path transform="translate(31.372617, 33.425925) rotate(-56.000000) translate(-31.372617, -33.425925)" stroke="url(#linearGradient-8)" id="路径" d="M44.6094414,52.4609618 C51.5974509,48.7203394 58.1560764,42.0460607 58.1504512,35.0858616 C58.1412142,23.6685992 45.8608314,14.4031474 30.7214448,14.3908886 C15.5820583,14.3786444 4.58555592,29.812953 4.59478347,41.2302155"></path>
                <path transform="translate(38.916408, 34.062470) rotate(-56.000000) translate(-38.916408, -34.062470)" stroke="url(#linearGradient-9)" id="路径" d="M52.3112777,52.5223641 C59.2992871,48.7817417 66.8556199,43.2577509 66.8499942,36.2975517 C66.8407577,24.8802893 54.5603749,15.6148375 39.4209883,15.6025763 C24.2816017,15.5903345 10.9735942,27.0908577 10.9828228,38.5081201"></path>
            </g>
            <g stroke-linecap="round" transform="translate(69.124083, 11.132747)" id="编组-5">
                <path transform="translate(31.372617, 33.425925) rotate(-56.000000) translate(-31.372617, -33.425925)" stroke="url(#linearGradient-8)" id="路径" d="M44.6094414,52.4609618 C51.5974509,48.7203394 58.1560764,42.0460607 58.1504512,35.0858616 C58.1412142,23.6685992 45.8608314,14.4031474 30.7214448,14.3908886 C15.5820583,14.3786444 4.58555592,29.812953 4.59478347,41.2302155"></path>
                <path transform="translate(38.916408, 34.062470) rotate(-56.000000) translate(-38.916408, -34.062470)" stroke="url(#linearGradient-9)" id="路径" d="M52.3112777,52.5223641 C59.2992871,48.7817417 66.8556199,43.2577509 66.8499942,36.2975517 C66.8407577,24.8802893 54.5603749,15.6148375 39.4209883,15.6025763 C24.2816017,15.5903345 10.9735942,27.0908577 10.9828228,38.5081201"></path>
            </g>
            <g stroke-linecap="round" transform="translate(132.124083, 20.132747)" id="编组-5">
                <path transform="translate(31.372617, 33.425925) rotate(-56.000000) translate(-31.372617, -33.425925)" stroke="url(#linearGradient-8)" id="路径" d="M44.6094414,52.4609618 C51.5974509,48.7203394 58.1560764,42.0460607 58.1504512,35.0858616 C58.1412142,23.6685992 45.8608314,14.4031474 30.7214448,14.3908886 C15.5820583,14.3786444 4.58555592,29.812953 4.59478347,41.2302155"></path>
                <path transform="translate(38.916408, 34.062470) rotate(-56.000000) translate(-38.916408, -34.062470)" stroke="url(#linearGradient-9)" id="路径" d="M52.3112777,52.5223641 C59.2992871,48.7817417 66.8556199,43.2577509 66.8499942,36.2975517 C66.8407577,24.8802893 54.5603749,15.6148375 39.4209883,15.6025763 C24.2816017,15.5903345 10.9735942,27.0908577 10.9828228,38.5081201"></path>
            </g>
            <polygon points="56.8237413 60.8830884 68.287892 60.8853703 68.2896034 69.4995865 56.8254527 69.4973046" transform="translate(62.556672, 65.191337) rotate(6.000000) translate(-62.556672, -65.191337)" fill="#F54136" id="矩形备份-13"></polygon>
            <polygon points="118.442262 72.3689499 129.906413 72.3712318 129.908125 80.985448 118.443974 80.9831661" transform="translate(124.175194, 76.677199) rotate(6.000000) translate(-124.175194, -76.677199)" fill="#F54136" id="矩形备份-16"></polygon>
            <polygon points="150.684512 78.1118806 162.148663 78.1141625 162.150374 86.7283788 150.686223 86.7260969" transform="translate(156.417443, 82.420130) rotate(6.000000) translate(-156.417443, -82.420130)" fill="#F54136" id="矩形备份-17"></polygon>
            <polygon points="32.1240828 90.1327467 32.1240828 103.37264 107.9647 112.359755 107.9647 100.359755" fill="url(#linearGradient-10)" id="路径-50"></polygon>
            <polygon points="32.1240828 129.132747 32.1240828 144.162574 160.124083 158.132747 160.124083 144.162574" fill="url(#linearGradient-11)" id="路径-51"></polygon>
            <polygon points="32.1240828 165.132747 32.1240828 180.162574 160.124083 194.132747 160.124083 180.162574" fill="url(#linearGradient-11)" id="路径-51备份"></polygon>
            <path fill="#F8D5D7" id="路径-52" d="M17.4627443,211.132747 C14.7745385,241.714123 8.95362373,259.662775 2.7762341e-13,264.978703 C-0.46995501,265.494872 52.9047393,273.524159 160.124083,289.066564 L175.124083,211.132747 L17.4627443,211.132747 Z"></path>
            <path fill="#FFFFFF" id="路径-52" d="M15.4627443,209.132747 C14.1926863,239.08658 9.08084534,256.72146 0.127221611,262.037388 C-0.342733399,262.553557 51.9602725,270.585344 157.036239,286.132747 L175.124083,209.132747 L15.4627443,209.132747 Z"></path>
            <polygon points="32.1240828 199.132747 32.1240828 214.162574 160.124083 228.132747 160.124083 214.162574" fill="url(#linearGradient-11)" id="路径-51备份-2"></polygon>
            <polygon points="21.7155141 55.1401576 33.1796648 55.1424395 33.1813762 63.7566558 21.7172255 63.7543739" transform="translate(27.448445, 59.448407) rotate(6.000000) translate(-27.448445, -59.448407)" fill="#F54136" id="矩形"></polygon>
            <polygon points="86.200013 66.6260191 97.6641637 66.628301 97.6658752 75.2425173 86.2017244 75.2402354" transform="translate(91.932944, 70.934268) rotate(6.000000) translate(-91.932944, -70.934268)" fill="#F54136" id="矩形备份-15"></polygon>
            <g stroke-linecap="round" transform="translate(38.124083, 5.132747)" id="编组-5">
                <path transform="translate(31.372617, 33.425925) rotate(-56.000000) translate(-31.372617, -33.425925)" stroke="url(#linearGradient-8)" id="路径" d="M44.6094414,52.4609618 C51.5974509,48.7203394 58.1560764,42.0460607 58.1504512,35.0858616 C58.1412142,23.6685992 45.8608314,14.4031474 30.7214448,14.3908886 C15.5820583,14.3786444 4.58555592,29.812953 4.59478347,41.2302155"></path>
                <path transform="translate(38.916408, 34.062470) rotate(-56.000000) translate(-38.916408, -34.062470)" stroke="url(#linearGradient-9)" id="路径" d="M52.3112777,52.5223641 C59.2992871,48.7817417 66.8556199,43.2577509 66.8499942,36.2975517 C66.8407577,24.8802893 54.5603749,15.6148375 39.4209883,15.6025763 C24.2816017,15.5903345 10.9735942,27.0908577 10.9828228,38.5081201"></path>
            </g>
            <g stroke-linecap="round" transform="translate(100.797755, 17.945205)" id="编组-5">
                <path transform="translate(30.870110, 32.990919) rotate(-56.000000) translate(-30.870110, -32.990919)" stroke="url(#linearGradient-12)" id="路径" d="M43.9401271,51.7864918 C50.8374411,48.0948758 57.3102062,41.5066592 57.3030322,34.6346123 C57.2912485,23.3619517 45.1665548,14.210986 30.221765,14.1953464 C15.2769751,14.1797308 4.42542031,29.4159931 4.43718849,40.6886537"></path>
                <path transform="translate(38.319488, 33.619536) rotate(-56.000000) translate(-38.319488, -33.619536)" stroke="url(#linearGradient-13)" id="路径" d="M51.5457089,51.847135 C58.4430229,48.155519 65.9009392,42.7032541 65.8937644,35.8312072 C65.8819815,24.5585466 53.7572878,15.4075809 38.8124979,15.3919372 C23.8677081,15.3763257 10.7334423,26.7280862 10.7452122,38.0007468"></path>
            </g>
        </g>
        <g transform="translate(337.440523, 512.069512)" id="笔">
            <path transform="translate(23.385426, 22.984621) rotate(-19.000000) translate(-23.385426, -22.984621)" fill="#FBC7C6" id="椭圆形" d="M23.133808,40.910489 C33.6324031,40.9025348 41.7202585,32.6364523 41.7277444,22.7362719 C41.7352199,12.8360915 33.6594931,5.05080998 23.160898,5.05875215 C12.6623029,5.06670648 5.05059352,13.1414893 5.04310729,23.0416697 C5.03563211,32.9418502 12.6352128,40.9184313 23.133808,40.910489 Z"></path>
            <polygon points="8.5594766 34.4709285 45.2638341 151.826044 68.174001 166.930488 77.5594766 138.922008 43.0594766 22.9304879" fill="url(#linearGradient-14)" id="路径-53"></polygon>
            <polygon points="6.70257077 23.9194002 43.3592059 24.0298232 43.3536854 30.7516514 6.69705025 30.6412284" transform="translate(25.028128, 27.335526) rotate(-21.000000) translate(-25.028128, -27.335526)" fill="url(#linearGradient-15)" id="矩形"></polygon>
            <path fill="#FBC7C6" id="路径-54" d="M45.5594766,151.830617 C66.009714,143.230531 76.6351656,138.930488 77.4358314,138.930488 C78.2364972,138.930488 75.1486219,148.263821 68.1722056,166.930488 L45.5594766,151.830617 Z"></path>
            <polygon points="68.096185 166.930488 64.5594766 164.588662 69.5594766 162.930488" fill="#F16463" id="路径-55"></polygon>
        </g>
    </g>
</svg>