<svg xmlns:xlink="http://www.w3.org/1999/xlink" xmlns="http://www.w3.org/2000/svg" version="1.1" viewBox="0 0 1024 1024" height="1024px" width="1024px">
    <title>暂无数据</title>
    <defs>
        <linearGradient id="linearGradient-1" y2="-0.0579832828%" x2="50%" y1="100.122278%" x1="50%">
            <stop offset="0%" stop-opacity="0" stop-color="#FDF5F7"></stop>
            <stop offset="100%" stop-color="#FAD4D2"></stop>
        </linearGradient>
        <linearGradient id="linearGradient-2" y2="0.00649473815%" x2="50.0843871%" y1="100%" x1="50.0843871%">
            <stop offset="0%" stop-opacity="0.1" stop-color="#FFFFFF"></stop>
            <stop offset="100%" stop-color="#FDECEB"></stop>
        </linearGradient>
        <linearGradient id="linearGradient-3" y2="-0.0811277354%" x2="50.0045895%" y1="99.9311993%" x1="50.0045895%">
            <stop offset="0%" stop-opacity="0.1" stop-color="#FFFFFF"></stop>
            <stop offset="100%" stop-color="#FAD6D4"></stop>
        </linearGradient>
        <linearGradient id="linearGradient-4" y2="0%" x2="50%" y1="100%" x1="50%">
            <stop offset="0%" stop-opacity="0.1" stop-color="#FFFFFF"></stop>
            <stop offset="13%" stop-color="#FEFCFB"></stop>
            <stop offset="41%" stop-color="#FEFCFB"></stop>
            <stop offset="81%" stop-color="#F9D8D5"></stop>
            <stop offset="100%" stop-color="#F9D8D5"></stop>
        </linearGradient>
        <linearGradient id="linearGradient-5" y2="42.3079685%" x2="50%" y1="56.5955802%" x1="33.7644974%">
            <stop offset="0%" stop-opacity="0" stop-color="#FFF3F2"></stop>
            <stop offset="100%" stop-color="#FFE2E0"></stop>
        </linearGradient>
        <linearGradient id="linearGradient-6" y2="50%" x2="100%" y1="50%" x1="0%">
            <stop offset="0%" stop-color="#F69896"></stop>
            <stop offset="100%" stop-color="#F65551"></stop>
        </linearGradient>
        <linearGradient id="linearGradient-7" y2="26.9875832%" x2="50%" y1="81.7002727%" x1="50%">
            <stop offset="0%" stop-color="#F36F6A"></stop>
            <stop offset="100%" stop-color="#F8A2A0"></stop>
        </linearGradient>
        <linearGradient id="linearGradient-8" y2="100%" x2="50%" y1="0%" x1="50%">
            <stop offset="0%" stop-color="#F78483"></stop>
            <stop offset="100%" stop-color="#F77671"></stop>
        </linearGradient>
        <linearGradient id="linearGradient-9" y2="56.7956423%" x2="58.0978396%" y1="46.5724254%" x1="50%">
            <stop offset="0%" stop-color="#F8A2A0"></stop>
            <stop offset="100%" stop-color="#F94E47"></stop>
        </linearGradient>
        <linearGradient id="linearGradient-10" y2="56.4360148%" x2="18.3597504%" y1="43.5639852%" x1="89.5607627%">
            <stop offset="0%" stop-color="#E99B9A"></stop>
            <stop offset="100%" stop-color="#F3C0BF"></stop>
        </linearGradient>
        <linearGradient id="linearGradient-11" y2="87.6415502%" x2="40.0354199%" y1="5.79221095%" x1="83.5325427%">
            <stop offset="0%" stop-color="#EA9D9C"></stop>
            <stop offset="100%" stop-color="#F2BBBA"></stop>
        </linearGradient>
    </defs>
    <g fill-rule="evenodd" fill="none" stroke-width="1" stroke="none" id="暂无数据">
        <rect height="1024" width="1024" y="0" x="0" fill="#FFFFFF"></rect>
        <g fill-rule="nonzero" transform="translate(0.000000, 120.000000)" id="编组-2">
            <polygon points="101.338645 486 107 547 72 542.931464" fill="#FAD4D2" id="路径"></polygon>
            <polygon points="101 486 138 534.205154 106.668679 547" fill="#FDC6C3" id="路径"></polygon>
            <path fill="url(#linearGradient-1)" id="路径" d="M167.226695,222.026586 C163.492711,202.014575 146.009937,187.640823 125.848517,188.006834 C115.061593,187.956383 104.650299,192.004239 96.6816737,199.346752 C92.2164177,197.314169 87.3751145,196.260961 82.4772245,196.256625 C66.9584474,196.009657 53.3722107,206.731143 49.8575212,221.998237 C37.9307461,224.661244 29.3304481,235.181909 29,247.513052 C29.4585952,262.518847 41.8172108,274.341524 56.6790254,273.99176 L160.320975,273.99176 C175.188744,274.357154 187.556538,262.525697 188,247.513052 C187.676143,235.214173 179.115739,224.711538 167.226695,222.026586 L167.226695,222.026586 Z"></path>
            <path fill="url(#linearGradient-2)" id="路径" d="M768.714498,83.0955745 C763.32672,74.6548285 754.21547,69.4118365 744.306491,69.0501903 C738.536478,60.1203494 728.651433,54.817417 718.124893,55.0048061 C709.6853,54.9196281 701.567448,58.2843886 695.603086,64.3398479 C692.872347,63.4561753 690.023822,63.0036407 687.157409,62.9981143 C673.897696,62.9981143 662.946468,72.3046086 661.820379,84.0661904 C651.712515,86.5091866 644.434781,95.4630212 644,105.990693 C644,118.665795 655.457969,129 669.337032,129 L766.659384,129 C780.735511,129 791.996416,118.665795 791.996416,105.990693 C792.221633,93.9436356 781.805297,84.037643 768.714498,83.0955745 Z"></path>
            <path fill="url(#linearGradient-3)" id="路径" d="M949.623905,51.7428517 C940.122562,32.1673233 920.286816,19.7104525 898.509647,19.643039 C886.380486,19.6691136 874.582387,23.5978536 864.863399,30.8471621 C853.298536,8.31301396 828.182324,-3.83299065 803.315887,1.08326516 C778.449449,5.99952119 759.857514,26.7869102 757.756177,52.0229547 C731.006664,60.4551356 714.408255,87.1140641 718.662885,114.81122 C722.917516,142.508377 746.754,162.9685 774.803609,163 L933.053129,163 C961.264971,163.053292 985.245783,142.424685 989.381219,114.545632 C993.516652,86.6665792 976.554782,59.9769683 949.53979,51.8548928 L949.623905,51.7428517 Z"></path>
            <ellipse ry="162" rx="512" cy="622" cx="512" opacity="0.407744635" fill="url(#linearGradient-4)" id="椭圆形"></ellipse>
            <polygon points="906 486 901.126468 550 865 539.522626" fill="#FAD4D2" id="路径"></polygon>
            <polygon points="904.847021 486 935 542.390418 900 550" fill="#FDC6C3" id="路径"></polygon>
            <polygon points="201.370482 474 206 522 177 518.807536" fill="#F7D9D7" id="路径"></polygon>
            <polygon points="200 474 230 511.885817 204.547188 522" fill="#FFCCC8" id="路径"></polygon>
            <polygon points="148.480744 444 158 545 94 538.708564" fill="#FAD4D2" id="路径"></polygon>
            <polygon points="147 444 214 523.373191 156.526873 545" fill="#FDC6C3" id="路径"></polygon>
        </g>
        <polygon points="689.251082 668 348 680 221.139749 804 431.405516 851.605074" fill="url(#linearGradient-5)" id="路径-24"></polygon>
        <g transform="translate(297.000000, 444.000000)" id="箱子">
            <polygon points="392.251082 221 209.519481 192.663902 209.519481 0 392.251082 28.3360999" fill-rule="nonzero" fill="#F66E6B" id="路径"></polygon>
            <polygon points="49.7489177 223.87013 209.519481 192.663902 209.519481 0 49.7489177 30.7901955" fill-rule="nonzero" fill="#F8A4A2" id="路径"></polygon>
            <polygon points="234.393939 251.614719 48.7922078 223.275163 48.7922078 30.6147186 233.437229 58.5077587" fill-rule="nonzero" fill="url(#linearGradient-6)" id="路径"></polygon>
            <polygon points="182.267991 105.238095 0 76.7055272 49.2558185 29.6580087 233.437229 58.5077587" fill-rule="nonzero" fill="url(#linearGradient-7)" id="路径"></polygon>
            <polygon points="233.437229 58.5077587 233.437229 251.614719 392.251082 221 392.251082 28.7012987" fill="url(#linearGradient-8)" id="路径-44"></polygon>
            <path fill="url(#linearGradient-9)" id="路径-43" d="M282.795472,105.238095 L442,75.4812788 L392.251082,28.7012987 L234.393939,58.1864554 C247.749606,71.1696396 263.88345,86.8535195 282.795472,105.238095 Z"></path>
        </g>
        <path stroke-dasharray="3" stroke-width="2" stroke="#F66E6B" id="线路" d="M497.340418,497 C528.079756,443 566.13295,407.666667 611.5,391"></path>
        <g transform="translate(606.918168, 361.762352)" id="飞机">
            <polygon points="12.7029294 19.195116 12.7029294 36.9463852 53.5016563 3.92034231e-13" fill="#DA7574" id="路径-46"></polygon>
            <polygon points="12.7029294 19.195116 7.13624811e-13 11.5764535 53.5016563 3.39967185e-13" fill="url(#linearGradient-10)" id="路径-47"></polygon>
            <polygon points="12.7029294 36.9463852 26.7508282 33.9313087 22.0100298 28.4512675" fill="#E0605C" id="路径-49"></polygon>
            <polygon points="17.5532299 22.1653093 29.9987504 39.5357758 53.5016563 -1.04901974e-12" fill="url(#linearGradient-11)" id="路径-48"></polygon>
        </g>
    </g>
</svg>