<svg xmlns:xlink="http://www.w3.org/1999/xlink" xmlns="http://www.w3.org/2000/svg" version="1.1" viewBox="0 0 1024 1024" height="1024px" width="1024px">
    <title>服务器响了</title>
    <defs>
        <linearGradient id="linearGradient-1" y2="-0.0579832828%" x2="50%" y1="100.122278%" x1="50%">
            <stop offset="0%" stop-opacity="0" stop-color="#FDF5F7"></stop>
            <stop offset="100%" stop-color="#FAD4D2"></stop>
        </linearGradient>
        <linearGradient id="linearGradient-2" y2="0.00649473815%" x2="50.0843871%" y1="100%" x1="50.0843871%">
            <stop offset="0%" stop-opacity="0.1" stop-color="#FFFFFF"></stop>
            <stop offset="100%" stop-color="#FDECEB"></stop>
        </linearGradient>
        <linearGradient id="linearGradient-3" y2="-0.0811277354%" x2="50.0045895%" y1="99.9311993%" x1="50.0045895%">
            <stop offset="0%" stop-opacity="0.1" stop-color="#FFFFFF"></stop>
            <stop offset="100%" stop-color="#FAD6D4"></stop>
        </linearGradient>
        <linearGradient id="linearGradient-4" y2="0%" x2="50%" y1="100%" x1="50%">
            <stop offset="0%" stop-opacity="0.1" stop-color="#FFFFFF"></stop>
            <stop offset="13%" stop-color="#FEFCFB"></stop>
            <stop offset="41%" stop-color="#FEFCFB"></stop>
            <stop offset="81%" stop-color="#F9D8D5"></stop>
            <stop offset="100%" stop-color="#F9D8D5"></stop>
        </linearGradient>
        <linearGradient id="linearGradient-5" y2="47.9723813%" x2="50%" y1="52.7637909%" x1="12.7059618%">
            <stop offset="0%" stop-opacity="0" stop-color="#FFF3F2"></stop>
            <stop offset="100%" stop-color="#FFE2E0"></stop>
        </linearGradient>
        <linearGradient id="linearGradient-6" y2="100%" x2="50%" y1="0%" x1="50%">
            <stop offset="0%" stop-color="#FBDDDE"></stop>
            <stop offset="100%" stop-color="#FACFCE"></stop>
        </linearGradient>
        <linearGradient id="linearGradient-7" y2="100%" x2="50%" y1="0%" x1="50%">
            <stop offset="0%" stop-color="#F6BABA"></stop>
            <stop offset="100%" stop-color="#F88583"></stop>
        </linearGradient>
    </defs>
    <g fill-rule="evenodd" fill="none" stroke-width="1" stroke="none" id="服务器响了">
        <rect height="1024" width="1024" y="0" x="0" fill="#FFFFFF"></rect>
        <g fill-rule="nonzero" transform="translate(0.000000, 120.000000)" id="编组-2">
            <polygon points="101.338645 486 107 547 72 542.931464" fill="#FAD4D2" id="路径"></polygon>
            <polygon points="101 486 138 534.205154 106.668679 547" fill="#FDC6C3" id="路径"></polygon>
            <path fill="url(#linearGradient-1)" id="路径" d="M167.226695,222.026586 C163.492711,202.014575 146.009937,187.640823 125.848517,188.006834 C115.061593,187.956383 104.650299,192.004239 96.6816737,199.346752 C92.2164177,197.314169 87.3751145,196.260961 82.4772245,196.256625 C66.9584474,196.009657 53.3722107,206.731143 49.8575212,221.998237 C37.9307461,224.661244 29.3304481,235.181909 29,247.513052 C29.4585952,262.518847 41.8172108,274.341524 56.6790254,273.99176 L160.320975,273.99176 C175.188744,274.357154 187.556538,262.525697 188,247.513052 C187.676143,235.214173 179.115739,224.711538 167.226695,222.026586 L167.226695,222.026586 Z"></path>
            <path fill="url(#linearGradient-2)" id="路径" d="M768.714498,83.0955745 C763.32672,74.6548285 754.21547,69.4118365 744.306491,69.0501903 C738.536478,60.1203494 728.651433,54.817417 718.124893,55.0048061 C709.6853,54.9196281 701.567448,58.2843886 695.603086,64.3398479 C692.872347,63.4561753 690.023822,63.0036407 687.157409,62.9981143 C673.897696,62.9981143 662.946468,72.3046086 661.820379,84.0661904 C651.712515,86.5091866 644.434781,95.4630212 644,105.990693 C644,118.665795 655.457969,129 669.337032,129 L766.659384,129 C780.735511,129 791.996416,118.665795 791.996416,105.990693 C792.221633,93.9436356 781.805297,84.037643 768.714498,83.0955745 Z"></path>
            <path fill="url(#linearGradient-3)" id="路径" d="M949.623905,51.7428517 C940.122562,32.1673233 920.286816,19.7104525 898.509647,19.643039 C886.380486,19.6691136 874.582387,23.5978536 864.863399,30.8471621 C853.298536,8.31301396 828.182324,-3.83299065 803.315887,1.08326516 C778.449449,5.99952119 759.857514,26.7869102 757.756177,52.0229547 C731.006664,60.4551356 714.408255,87.1140641 718.662885,114.81122 C722.917516,142.508377 746.754,162.9685 774.803609,163 L933.053129,163 C961.264971,163.053292 985.245783,142.424685 989.381219,114.545632 C993.516652,86.6665792 976.554782,59.9769683 949.53979,51.8548928 L949.623905,51.7428517 Z"></path>
            <ellipse ry="162" rx="512" cy="622" cx="512" opacity="0.407744635" fill="url(#linearGradient-4)" id="椭圆形"></ellipse>
            <polygon points="906 486 901.126468 550 865 539.522626" fill="#FAD4D2" id="路径"></polygon>
            <polygon points="904.847021 486 935 542.390418 900 550" fill="#FDC6C3" id="路径"></polygon>
            <polygon points="201.370482 474 206 522 177 518.807536" fill="#F7D9D7" id="路径"></polygon>
            <polygon points="200 474 230 511.885817 204.547188 522" fill="#FFCCC8" id="路径"></polygon>
            <polygon points="148.480744 444 158 545 94 538.708564" fill="#FAD4D2" id="路径"></polygon>
            <polygon points="147 444 214 523.373191 156.526873 545" fill="#FDC6C3" id="路径"></polygon>
        </g>
        <polygon points="704 679 347 679 221.139749 742 410.555556 776.236561" fill="url(#linearGradient-5)" id="路径-24"></polygon>
        <g transform="translate(347.000000, 438.000000)" id="电视机">
            <path fill="url(#linearGradient-6)" id="路径-25" d="M49.01384,-4.97379915e-14 L310.931532,-4.97379915e-14 C311.658093,-7.05216068e-14 312.327506,0.394027041 312.680154,1.02926676 L357.010224,80.8828346 L357.010224,80.8828346 L-3.97903932e-13,80.8828346 L47.2927249,0.981293481 C47.6527334,0.373055447 48.3070446,-5.40490474e-14 49.01384,-4.97379915e-14 Z"></path>
            <rect rx="2" height="161" width="357" y="80" x="0" fill="url(#linearGradient-7)" id="矩形"></rect>
            <rect rx="2" height="129" width="260" y="96" x="25" fill="#ED3F36" id="矩形"></rect>
            <rect height="8" width="49" y="111" x="37" fill="#F57C7D" id="矩形"></rect>
            <rect height="8" width="19" y="111" x="235" fill="#F57C7D" id="矩形备份"></rect>
            <rect height="8" width="19" y="205" x="63.5555556" fill="#F57C7D" id="矩形备份-3"></rect>
            <rect height="8" width="19" y="205" x="134.222222" fill="#F57C7D" id="矩形备份-5"></rect>
            <rect height="8" width="19" y="205" x="204.888889" fill="#F57C7D" id="矩形备份-10"></rect>
            <rect height="8" width="20" y="111" x="211" fill="#F57C7D" id="矩形备份-6"></rect>
            <rect height="8" width="20" y="205" x="38" fill="#F57C7D" id="矩形备份-7"></rect>
            <rect height="8" width="20" y="205" x="108.666667" fill="#F57C7D" id="矩形备份-8"></rect>
            <rect height="8" width="20" y="205" x="179.333333" fill="#F57C7D" id="矩形备份-11"></rect>
            <rect height="8" width="20" y="205" x="250" fill="#F57C7D" id="矩形备份-14"></rect>
            <rect height="8" width="16" y="111" x="98" fill="#F57C7D" id="矩形"></rect>
            <rect height="8" width="15" y="111" x="258" fill="#F57C7D" id="矩形备份-2"></rect>
            <rect height="8" width="15" y="205" x="88.1111111" fill="#F57C7D" id="矩形备份-4"></rect>
            <rect height="8" width="15" y="205" x="158.777778" fill="#F57C7D" id="矩形备份-9"></rect>
            <rect height="8" width="15" y="205" x="229.444444" fill="#F57C7D" id="矩形备份-12"></rect>
            <path fill-rule="nonzero" fill="#FFFFFF" id="ERROR" d="M81.2490234,188 L81.2490234,183.385742 L57.7294922,183.385742 L57.7294922,170.254883 L79.1132812,170.254883 L79.1132812,165.772461 L57.7294922,165.772461 L57.7294922,154.012695 L80.8535156,154.012695 L80.8535156,149.266602 L52.6142578,149.266602 L52.6142578,188 L81.2490234,188 Z M98.0107422,188 L98.0107422,171.388672 L109.955078,171.388672 C112.099609,171.388672 113.672852,171.625977 114.674805,172.100586 C116.432617,172.961914 117.373047,174.658203 117.496094,177.189453 L117.496094,177.189453 L117.8125,183.649414 C117.882812,185.161133 117.970703,186.180664 118.076172,186.708008 C118.181641,187.235352 118.322266,187.666016 118.498047,188 L118.498047,188 L124.931641,188 L124.931641,187.129883 C124.123047,186.77832 123.560547,185.987305 123.244141,184.756836 C123.050781,184.036133 122.927734,182.9375 122.875,181.460938 L122.875,181.460938 L122.69043,176.266602 C122.602539,174.016602 122.17627,172.390625 121.411621,171.388672 C120.646973,170.386719 119.508789,169.578125 117.99707,168.962891 C119.719727,168.066406 121.060059,166.879883 122.018066,165.40332 C122.976074,163.926758 123.455078,162.02832 123.455078,159.708008 C123.455078,155.260742 121.635742,152.210938 117.99707,150.558594 C116.081055,149.697266 113.646484,149.266602 110.693359,149.266602 L110.693359,149.266602 L92.7636719,149.266602 L92.7636719,188 L98.0107422,188 Z M110.139648,167.011719 L98.0107422,167.011719 L98.0107422,153.775391 L110.825195,153.775391 C112.618164,153.775391 114.050781,154.039062 115.123047,154.566406 C117.126953,155.568359 118.128906,157.449219 118.128906,160.208984 C118.128906,162.775391 117.412598,164.550781 115.97998,165.535156 C114.547363,166.519531 112.600586,167.011719 110.139648,167.011719 L110.139648,167.011719 Z M141.007812,188 L141.007812,171.388672 L152.952148,171.388672 C155.09668,171.388672 156.669922,171.625977 157.671875,172.100586 C159.429688,172.961914 160.370117,174.658203 160.493164,177.189453 L160.493164,177.189453 L160.80957,183.649414 C160.879883,185.161133 160.967773,186.180664 161.073242,186.708008 C161.178711,187.235352 161.319336,187.666016 161.495117,188 L161.495117,188 L167.928711,188 L167.928711,187.129883 C167.120117,186.77832 166.557617,185.987305 166.241211,184.756836 C166.047852,184.036133 165.924805,182.9375 165.87207,181.460938 L165.87207,181.460938 L165.6875,176.266602 C165.599609,174.016602 165.17334,172.390625 164.408691,171.388672 C163.644043,170.386719 162.505859,169.578125 160.994141,168.962891 C162.716797,168.066406 164.057129,166.879883 165.015137,165.40332 C165.973145,163.926758 166.452148,162.02832 166.452148,159.708008 C166.452148,155.260742 164.632812,152.210938 160.994141,150.558594 C159.078125,149.697266 156.643555,149.266602 153.69043,149.266602 L153.69043,149.266602 L135.760742,149.266602 L135.760742,188 L141.007812,188 Z M153.136719,167.011719 L141.007812,167.011719 L141.007812,153.775391 L153.822266,153.775391 C155.615234,153.775391 157.047852,154.039062 158.120117,154.566406 C160.124023,155.568359 161.125977,157.449219 161.125977,160.208984 C161.125977,162.775391 160.409668,164.550781 158.977051,165.535156 C157.544434,166.519531 155.597656,167.011719 153.136719,167.011719 L153.136719,167.011719 Z M194.736328,189.133789 C201.117188,189.133789 206.030273,186.883789 209.475586,182.383789 C212.411133,178.551758 213.878906,173.744141 213.878906,167.960938 C213.878906,162.617188 212.595703,158.231445 210.029297,154.803711 C206.742188,150.40918 201.679688,148.211914 194.841797,148.211914 C188.302734,148.211914 183.363281,150.602539 180.023438,155.383789 C177.421875,159.110352 176.121094,163.592773 176.121094,168.831055 C176.121094,174.631836 177.641602,179.430664 180.682617,183.227539 C184.092773,187.165039 188.777344,189.133789 194.736328,189.133789 Z M195.369141,184.44043 C190.5,184.44043 186.97998,182.968262 184.809082,180.023926 C182.638184,177.07959 181.552734,173.462891 181.552734,169.173828 C181.552734,163.8125 182.818359,159.756348 185.349609,157.005371 C187.880859,154.254395 191.150391,152.878906 195.158203,152.878906 C199.289062,152.878906 202.54541,154.267578 204.927246,157.044922 C207.309082,159.822266 208.5,163.487305 208.5,168.040039 C208.5,172.34668 207.467285,176.156738 205.401855,179.470215 C203.336426,182.783691 199.992188,184.44043 195.369141,184.44043 Z M230.007812,188 L230.007812,171.388672 L241.952148,171.388672 C244.09668,171.388672 245.669922,171.625977 246.671875,172.100586 C248.429688,172.961914 249.370117,174.658203 249.493164,177.189453 L249.493164,177.189453 L249.80957,183.649414 C249.879883,185.161133 249.967773,186.180664 250.073242,186.708008 C250.178711,187.235352 250.319336,187.666016 250.495117,188 L250.495117,188 L256.928711,188 L256.928711,187.129883 C256.120117,186.77832 255.557617,185.987305 255.241211,184.756836 C255.047852,184.036133 254.924805,182.9375 254.87207,181.460938 L254.87207,181.460938 L254.6875,176.266602 C254.599609,174.016602 254.17334,172.390625 253.408691,171.388672 C252.644043,170.386719 251.505859,169.578125 249.994141,168.962891 C251.716797,168.066406 253.057129,166.879883 254.015137,165.40332 C254.973145,163.926758 255.452148,162.02832 255.452148,159.708008 C255.452148,155.260742 253.632812,152.210938 249.994141,150.558594 C248.078125,149.697266 245.643555,149.266602 242.69043,149.266602 L242.69043,149.266602 L224.760742,149.266602 L224.760742,188 L230.007812,188 Z M242.136719,167.011719 L230.007812,167.011719 L230.007812,153.775391 L242.822266,153.775391 C244.615234,153.775391 246.047852,154.039062 247.120117,154.566406 C249.124023,155.568359 250.125977,157.449219 250.125977,160.208984 C250.125977,162.775391 249.409668,164.550781 247.977051,165.535156 C246.544434,166.519531 244.597656,167.011719 242.136719,167.011719 L242.136719,167.011719 Z"></path>
            <circle r="20.5" cy="126.5" cx="323.5" fill="#ED3F36" id="椭圆形"></circle>
            <rect rx="2.5" height="7" width="41" y="156" x="303" fill="#ED3F36" id="矩形"></rect>
            <rect rx="2.5" height="7" width="41" y="171" x="303" fill="#ED3F36" id="矩形"></rect>
            <rect rx="2.5" height="7" width="41" y="186" x="303" fill="#ED3F36" id="矩形"></rect>
        </g>
    </g>
</svg>